<mxfile host="app.diagrams.net" modified="2020-10-20T12:01:29.742Z" agent="5.0 (Macintosh; Intel Mac OS X 10_15_6) AppleWebKit/537.36 (KHTML, like Gecko) Chrome/85.0.4183.83 Safari/537.36" etag="NG4rh8gpFdD8kQgrYmbJ" version="13.7.9" type="github">
  <diagram name="Page-1" id="2a216829-ef6e-dabb-86c1-c78162f3ba2b">
    <mxGraphModel dx="1426" dy="803" grid="1" gridSize="10" guides="1" tooltips="1" connect="1" arrows="1" fold="1" page="1" pageScale="1" pageWidth="1169" pageHeight="827" background="#ffffff" math="0" shadow="0">
      <root>
        <mxCell id="0" />
        <mxCell id="1" parent="0" />
        <mxCell id="E2MfJ3g03w7xL6Gh8cpz-1" value="Student" style="swimlane;startSize=20;horizontal=0;" vertex="1" parent="1">
          <mxGeometry x="200" y="30" width="320" height="120" as="geometry" />
        </mxCell>
        <mxCell id="E2MfJ3g03w7xL6Gh8cpz-3" value="Zoom" style="swimlane;startSize=20;horizontal=0;" vertex="1" parent="1">
          <mxGeometry x="200" y="210" width="320" height="120" as="geometry" />
        </mxCell>
        <mxCell id="E2MfJ3g03w7xL6Gh8cpz-5" value="Perform realtime online lecture" style="swimlane;startSize=20;horizontal=0;" vertex="1" parent="1">
          <mxGeometry x="200" y="413" width="830" height="390" as="geometry" />
        </mxCell>
        <mxCell id="E2MfJ3g03w7xL6Gh8cpz-12" value="Lecturer" style="swimlane;html=1;horizontal=0;swimlaneLine=0;" vertex="1" parent="E2MfJ3g03w7xL6Gh8cpz-5">
          <mxGeometry x="20" width="810" height="390" as="geometry" />
        </mxCell>
        <mxCell id="E2MfJ3g03w7xL6Gh8cpz-9" value="Start recording" style="html=1;whiteSpace=wrap;rounded=1;dropTarget=0;" vertex="1" parent="E2MfJ3g03w7xL6Gh8cpz-12">
          <mxGeometry x="130" y="22" width="120" height="80" as="geometry" />
        </mxCell>
        <mxCell id="E2MfJ3g03w7xL6Gh8cpz-10" value="" style="html=1;shape=mxgraph.bpmn.user_task;outlineConnect=0;" vertex="1" parent="E2MfJ3g03w7xL6Gh8cpz-9">
          <mxGeometry width="14" height="14" relative="1" as="geometry">
            <mxPoint x="7" y="7" as="offset" />
          </mxGeometry>
        </mxCell>
        <mxCell id="E2MfJ3g03w7xL6Gh8cpz-13" style="edgeStyle=orthogonalEdgeStyle;rounded=0;orthogonalLoop=1;jettySize=auto;html=1;entryX=0;entryY=0.5;entryDx=0;entryDy=0;" edge="1" parent="E2MfJ3g03w7xL6Gh8cpz-12" source="E2MfJ3g03w7xL6Gh8cpz-8" target="E2MfJ3g03w7xL6Gh8cpz-9">
          <mxGeometry relative="1" as="geometry" />
        </mxCell>
        <mxCell id="E2MfJ3g03w7xL6Gh8cpz-8" value="" style="shape=mxgraph.bpmn.shape;html=1;verticalLabelPosition=bottom;labelBackgroundColor=#ffffff;verticalAlign=top;align=center;perimeter=ellipsePerimeter;outlineConnect=0;outline=standard;symbol=general;" vertex="1" parent="E2MfJ3g03w7xL6Gh8cpz-12">
          <mxGeometry x="40" y="47" width="30" height="30" as="geometry" />
        </mxCell>
        <mxCell id="E2MfJ3g03w7xL6Gh8cpz-19" value="Screen recording" style="shape=note;whiteSpace=wrap;html=1;backgroundOutline=1;darkOpacity=0.05;" vertex="1" parent="E2MfJ3g03w7xL6Gh8cpz-12">
          <mxGeometry x="250" y="136" width="80" height="100" as="geometry" />
        </mxCell>
        <mxCell id="E2MfJ3g03w7xL6Gh8cpz-20" value="" style="startArrow=none;startFill=0;startSize=7;endArrow=open;endFill=0;endSize=10;dashed=1;html=1;exitX=0.5;exitY=1;exitDx=0;exitDy=0;entryX=0;entryY=0.5;entryDx=0;entryDy=0;entryPerimeter=0;edgeStyle=orthogonalEdgeStyle;dashPattern=1 4;" edge="1" parent="E2MfJ3g03w7xL6Gh8cpz-12" source="E2MfJ3g03w7xL6Gh8cpz-9" target="E2MfJ3g03w7xL6Gh8cpz-19">
          <mxGeometry width="100" relative="1" as="geometry">
            <mxPoint x="200" y="32" as="sourcePoint" />
            <mxPoint x="200" y="-74" as="targetPoint" />
          </mxGeometry>
        </mxCell>
        <mxCell id="E2MfJ3g03w7xL6Gh8cpz-22" value="Start recording" style="html=1;whiteSpace=wrap;rounded=1;dropTarget=0;" vertex="1" parent="E2MfJ3g03w7xL6Gh8cpz-12">
          <mxGeometry x="290" y="17" width="120" height="80" as="geometry" />
        </mxCell>
        <mxCell id="E2MfJ3g03w7xL6Gh8cpz-23" value="" style="html=1;shape=mxgraph.bpmn.user_task;outlineConnect=0;" vertex="1" parent="E2MfJ3g03w7xL6Gh8cpz-22">
          <mxGeometry width="14" height="14" relative="1" as="geometry">
            <mxPoint x="7" y="7" as="offset" />
          </mxGeometry>
        </mxCell>
        <mxCell id="E2MfJ3g03w7xL6Gh8cpz-14" value="" style="startArrow=oval;startFill=0;startSize=7;endArrow=block;endFill=0;endSize=10;dashed=1;html=1;exitX=0.5;exitY=0;exitDx=0;exitDy=0;" edge="1" parent="1" source="E2MfJ3g03w7xL6Gh8cpz-9">
          <mxGeometry width="100" relative="1" as="geometry">
            <mxPoint x="30" y="330" as="sourcePoint" />
            <mxPoint x="410" y="330" as="targetPoint" />
          </mxGeometry>
        </mxCell>
        <mxCell id="E2MfJ3g03w7xL6Gh8cpz-15" value="Recording started notice" style="edgeLabel;html=1;align=center;verticalAlign=middle;resizable=0;points=[];" vertex="1" connectable="0" parent="E2MfJ3g03w7xL6Gh8cpz-14">
          <mxGeometry x="0.5094" y="2" relative="1" as="geometry">
            <mxPoint as="offset" />
          </mxGeometry>
        </mxCell>
      </root>
    </mxGraphModel>
  </diagram>
</mxfile>
